<?xml version="1.0" encoding="utf-8"?>
<!-- Generator: Adobe Illustrator 16.0.4, SVG Export Plug-In . SVG Version: 6.00 Build 0)  -->
<!DOCTYPE svg PUBLIC "-//W3C//DTD SVG 1.1//EN" "http://www.w3.org/Graphics/SVG/1.1/DTD/svg11.dtd">
<svg version="1.1" id="Layer_1" xmlns="http://www.w3.org/2000/svg" xmlns:xlink="http://www.w3.org/1999/xlink" x="0px" y="0px"
	 width="436px" height="171px" viewBox="0 0 436 171" enable-background="new 0 0 436 171" xml:space="preserve">
<g>
	<g>
		<g>
			<g opacity="0.63">
				<defs>
					<rect id="SVGID_1_" x="-24.442" y="-27.534" opacity="0.63" width="489" height="229"/>
				</defs>
				<clipPath id="SVGID_2_">
					<use xlink:href="#SVGID_1_"  overflow="visible"/>
				</clipPath>
				<g clip-path="url(#SVGID_2_)">
					<g>
						<defs>
							<rect id="SVGID_3_" x="-24.442" y="-27.534" width="489" height="229"/>
						</defs>
						<clipPath id="SVGID_4_">
							<use xlink:href="#SVGID_3_"  overflow="visible"/>
						</clipPath>
						<g clip-path="url(#SVGID_4_)">
							
								<image overflow="visible" enable-background="new    " width="490" height="230" xlink:href="CA85E6E114984226.png"  transform="matrix(0.998 0 0 0.9957 -24.4419 -27.5342)">
							</image>
						</g>
					</g>
				</g>
			</g>
			<path fill="#76BEBA" d="M62.835,50.536c-2.796,10.181-5.13,20.512-8.136,30.66c-2.539,8.597-5.516,17.971-10.868,25.328
				c-2.567,3.524-6.544,6.99-10.767,8.394c-9.642,3.196-6.597-12.358-11.047-15.683c-2.169-1.618-4.64,0.379-6.192,1.92
				c0,0-13.802,12.416-3.893,20.34c9.702,7.777,21.915,4.225,29.908-4.428c16.641-18.061,18.886-42.672,25.783-65.108
				c2.024-6.574,4.596-13.015,8.339-18.822c0.773-1.189,2.524-2.807,2.979-4.15c-5.258,15.516-5.515,41.1-5.515,41.1
				c-0.1,2.288-0.195,4.6-0.255,6.893c-0.289,10.093-0.504,20.218-1.149,30.263c-0.282,4.697-0.458,9.523-1.178,14.154
				c-0.845,5.56,3.463,4.414,7.935,4.414c0,0,7.534-1.541,16.35-15.918c10.184-16.597,15.489-35.392,23.501-52.98
				c4.417-9.708,9.101-19.38,14.796-28.384c0,0-29.695,74.507-6.842,92.72c14.053,11.188,37.126-2.432,42.573-16.895
				c0.736-1.943,1.64-4.33,0.822-6.379c-5.155,7.799-21.879,22.15-26.848,7.19c-1.172-3.521-1.089-7.472-1.149-11.138
				c-0.282-17.71,3.035-34.67,8.203-51.549c2.886-9.38,6.193-18.743,10.254-27.686c5.276-8.905-11.011-5.328-14.494-3.805
				c-2.896,1.277-5.743,3.026-8.048,5.254c-3.621,3.472-6.475,7.661-9.161,11.867c-5.817,9.154-10.565,18.945-15.042,28.804
				c-4.861,10.674-8.406,21.995-13.773,32.445c-1.683,3.293-3.553,6.526-5.615,9.606c-0.639,0.929-2.287,2.468-2.546,3.582
				c0.867-6.163,0.867-12.491,0.802-18.698c-0.252-23.186-1.595-48.357,10.676-69.07c5.264-8.891-11.007-5.314-14.486-3.791
				c-2.903,1.277-5.745,3.026-8.059,5.254C70.815,25.677,66.299,37.888,62.835,50.536"/>
			<path fill="#76BEBA" d="M253.43,100.23c-2.459,3.695-7.509,8.875-12.677,11.689c-2.089,1.145-4.476,2.411-6.919,2.164
				c-2.818-0.286-3.453-2.857-3.518-5.279c-0.125-4.492,0.509-9.336,1.35-13.754c0.708-3.779,1.812-7.504,2.82-11.237
				c1.75-6.609,3.897-13.033,6.098-19.5c0.427-1.256,0.9-2.515,1.318-3.754c1.438-4.273-3.185-3.436-5.526-2.493
				c-4.911,1.998-9.46,5.034-13.983,7.743c0,0-4.755-11.785-20.244-7.258c-6.691,1.973-12.758,5.215-18.123,9.71
				c-9.011,7.547-16.385,19.876-17.885,31.531c-0.895,6.852,0.023,16.109,5.26,21.13c6.002,5.722,14.32,5.14,21.346,1.96
				c4.865-2.222,8.565-5.498,11.896-9.242c2.286-2.545,4.391-5.291,6.599-8.049c0,3.932,0.096,8.932,1.452,13.217
				c1.222,3.807,3.423,7.032,7.511,8.412c0.564,0.199,1.154,0.297,1.768,0.377c5.125,0.608,11.039-1.824,15.323-4.396
				c4.368-2.611,8.562-5.753,11.573-9.939c1.443-1.994,2.867-4.347,3.74-6.656C253.339,104.661,254.251,102.271,253.43,100.23
				 M211.856,92.588c-2.009,4.523-4.406,9.027-7.265,13.079c-6.854,9.159-19.442,8.843-20.174-4.072
				c-0.617-10.771,9.935-42.714,25.541-38.078C221.812,67.046,215.032,85.479,211.856,92.588"/>
			<path fill="#76BEBA" d="M337.749,100.23c-2.445,3.695-7.515,8.875-12.674,11.689c-2.091,1.145-4.478,2.411-6.931,2.164
				c-2.817-0.286-3.453-2.857-3.511-5.279c-0.118-4.492,0.519-9.336,1.351-13.754c0.718-3.779,1.813-7.504,2.811-11.237
				c1.766-6.609,3.921-13.033,6.1-19.5c0.427-1.256,0.907-2.515,1.332-3.754c1.434-4.273-3.188-3.436-5.527-2.493
				c-4.912,1.998-9.453,5.034-13.989,7.743c0,0-4.751-11.785-20.237-7.258c-6.695,1.973-12.756,5.215-18.111,9.71
				c-9.018,7.547-16.391,19.876-17.905,31.531c-0.878,6.852,0.021,16.109,5.262,21.13c6.015,5.722,14.322,5.14,21.339,1.96
				c4.885-2.222,8.568-5.498,11.912-9.242c2.268-2.545,4.387-5.291,6.588-8.049c0,3.932,0.092,8.932,1.457,13.217
				c1.203,3.807,3.42,7.032,7.508,8.412c0.568,0.199,1.17,0.297,1.771,0.377c5.118,0.608,11.04-1.824,15.313-4.396
				c4.377-2.611,8.557-5.753,11.574-9.939c1.453-1.994,2.87-4.347,3.752-6.656C337.661,104.661,338.575,102.271,337.749,100.23
				 M296.177,92.588c-2.004,4.523-4.409,9.027-7.268,13.079c-6.841,9.159-19.437,8.843-20.179-4.072
				c-0.617-10.771,9.953-42.714,25.524-38.078C306.134,67.046,299.359,85.479,296.177,92.588"/>
			<path fill="#76BEBA" d="M411.213,42.856c4.944,0,8.914-4.002,8.914-8.927c0-4.931-3.97-8.924-8.914-8.924
				c-4.929,0-8.915,3.993-8.915,8.924C402.298,38.854,406.284,42.856,411.213,42.856 M417.761,105.311
				c-2.631,2.465-8.451,6.424-11.661,3.066c-2.13-2.263-1.53-6.299-1.18-9.043c1.911-14.602,7.024-29.164,11.749-43.087
				l-21.337,3.679c0,0-15.957,39.039-10.744,57.508c3.489,12.361,13.956,10.696,23.254,4.655
				c7.462-4.837,14.153-12.481,15.883-17.912c0.52-1.601,0.967-3.462,0.887-5.161L417.761,105.311z"/>
			<path fill="#76BEBA" d="M333.518,93.023c0,0-6.437,7.261-6.437,7.27c0.147-0.161,1.389-0.205,1.612-0.277
				c1.774-0.402,3.481-1.218,5.087-2.08c5.14-2.779,23.364-21.619,23.467-22.692c0,0-3.535,36.515-7.397,50.172
				c-5.674,2.846-12.43,7.036-16.51,11.983c-4.992,6.104-6.445,16.008-1.226,22.201c4.624,5.484,12.64,6.92,19.056,3.467
				c7.68-4.145,12.588-13.986,15.482-21.844c3.408-9.296,4.711-19.293,5.773-29.091c1.645-15.194,7.734-54.909,7.734-54.909
				l-16.773,2.702C357.84,65.465,333.518,93.023,333.518,93.023 M348.684,148.525c-0.865,3.244-2.136,6.888-5.156,8.779
				c-3,1.887-6.359,0.286-7.592-3.061c-3.689-9.902,9.643-19.594,15.932-23.745C351.127,130.902,349.715,144.543,348.684,148.525"/>
			<path fill="#76BEBA" d="M372.65,46.52c4.918,0,8.91-4.004,8.91-8.93c0-4.928-3.992-8.922-8.91-8.922
				c-4.943,0-8.936,3.994-8.936,8.922C363.716,42.516,367.707,46.52,372.65,46.52"/>
		</g>
	</g>
</g>
</svg>
